<mxfile host="app.diagrams.net" modified="2023-10-09T11:45:22.445Z" agent="Mozilla/5.0 (Windows NT 10.0; Win64; x64) AppleWebKit/537.36 (KHTML, like Gecko) Chrome/117.0.0.0 Safari/537.36" etag="-STh_pBKT4YWM0_Whbbb" version="22.0.4" type="github">
  <diagram name="Page-1" id="KzhcG-U69F4VEtKUvMF4">
    <mxGraphModel dx="724" dy="374" grid="1" gridSize="10" guides="1" tooltips="1" connect="1" arrows="1" fold="1" page="1" pageScale="1" pageWidth="850" pageHeight="1100" math="0" shadow="0">
      <root>
        <mxCell id="0" />
        <mxCell id="1" parent="0" />
        <mxCell id="LwbiWkl5QvT0qeDzT9Kk-14" style="edgeStyle=orthogonalEdgeStyle;rounded=0;hachureGap=4;orthogonalLoop=1;jettySize=auto;html=1;fontFamily=Architects Daughter;fontSource=https%3A%2F%2Ffonts.googleapis.com%2Fcss%3Ffamily%3DArchitects%2BDaughter;fontSize=16;labelBackgroundColor=none;fontColor=default;" edge="1" parent="1" source="LwbiWkl5QvT0qeDzT9Kk-2">
          <mxGeometry relative="1" as="geometry">
            <mxPoint x="210" y="200" as="targetPoint" />
          </mxGeometry>
        </mxCell>
        <mxCell id="LwbiWkl5QvT0qeDzT9Kk-2" value="Browser" style="ellipse;whiteSpace=wrap;html=1;aspect=fixed;rounded=0;labelBackgroundColor=none;" vertex="1" parent="1">
          <mxGeometry x="60" y="160" width="80" height="80" as="geometry" />
        </mxCell>
        <mxCell id="LwbiWkl5QvT0qeDzT9Kk-3" value="" style="rounded=0;whiteSpace=wrap;html=1;labelBackgroundColor=none;" vertex="1" parent="1">
          <mxGeometry x="220" y="120" width="300" height="180" as="geometry" />
        </mxCell>
        <mxCell id="LwbiWkl5QvT0qeDzT9Kk-4" value="Auth&lt;br&gt;Middle-&lt;br&gt;ware" style="rounded=0;whiteSpace=wrap;html=1;labelBackgroundColor=none;" vertex="1" parent="1">
          <mxGeometry x="230" y="130" width="50" height="160" as="geometry" />
        </mxCell>
        <mxCell id="LwbiWkl5QvT0qeDzT9Kk-5" value="Router" style="rounded=0;whiteSpace=wrap;html=1;labelBackgroundColor=none;" vertex="1" parent="1">
          <mxGeometry x="300" y="130" width="50" height="160" as="geometry" />
        </mxCell>
        <mxCell id="LwbiWkl5QvT0qeDzT9Kk-6" value="Feature A" style="rounded=0;whiteSpace=wrap;html=1;labelBackgroundColor=none;" vertex="1" parent="1">
          <mxGeometry x="370" y="130" width="120" height="30" as="geometry" />
        </mxCell>
        <mxCell id="LwbiWkl5QvT0qeDzT9Kk-7" value="Feature B" style="rounded=0;whiteSpace=wrap;html=1;labelBackgroundColor=none;" vertex="1" parent="1">
          <mxGeometry x="370" y="175" width="120" height="30" as="geometry" />
        </mxCell>
        <mxCell id="LwbiWkl5QvT0qeDzT9Kk-8" value="Feature C" style="rounded=0;whiteSpace=wrap;html=1;labelBackgroundColor=none;" vertex="1" parent="1">
          <mxGeometry x="370" y="220" width="120" height="30" as="geometry" />
        </mxCell>
        <mxCell id="LwbiWkl5QvT0qeDzT9Kk-9" value="Feature D" style="rounded=0;whiteSpace=wrap;html=1;labelBackgroundColor=none;" vertex="1" parent="1">
          <mxGeometry x="370" y="260" width="120" height="30" as="geometry" />
        </mxCell>
        <mxCell id="LwbiWkl5QvT0qeDzT9Kk-11" value="" style="rounded=0;whiteSpace=wrap;html=1;hachureGap=4;fontFamily=Architects Daughter;fontSource=https%3A%2F%2Ffonts.googleapis.com%2Fcss%3Ffamily%3DArchitects%2BDaughter;fontSize=20;labelBackgroundColor=none;" vertex="1" parent="1">
          <mxGeometry x="560" y="120" width="120" height="180" as="geometry" />
        </mxCell>
        <mxCell id="LwbiWkl5QvT0qeDzT9Kk-12" value="&lt;font style=&quot;font-size: 12px;&quot;&gt;Data&lt;/font&gt;" style="rounded=0;whiteSpace=wrap;html=1;hachureGap=4;fontFamily=Architects Daughter;fontSource=https%3A%2F%2Ffonts.googleapis.com%2Fcss%3Ffamily%3DArchitects%2BDaughter;fontSize=20;labelBackgroundColor=none;" vertex="1" parent="1">
          <mxGeometry x="590" y="130" width="60" height="80" as="geometry" />
        </mxCell>
        <mxCell id="LwbiWkl5QvT0qeDzT9Kk-13" value="&lt;font style=&quot;font-size: 12px;&quot;&gt;Data&lt;/font&gt;" style="rounded=0;whiteSpace=wrap;html=1;hachureGap=4;fontFamily=Architects Daughter;fontSource=https%3A%2F%2Ffonts.googleapis.com%2Fcss%3Ffamily%3DArchitects%2BDaughter;fontSize=20;labelBackgroundColor=none;" vertex="1" parent="1">
          <mxGeometry x="590" y="210" width="60" height="80" as="geometry" />
        </mxCell>
        <mxCell id="LwbiWkl5QvT0qeDzT9Kk-15" value="&lt;font style=&quot;font-size: 14px;&quot;&gt;Request&lt;/font&gt;" style="text;html=1;align=center;verticalAlign=middle;resizable=0;points=[];autosize=1;strokeColor=none;fillColor=none;fontSize=20;fontFamily=Architects Daughter;rounded=0;labelBackgroundColor=none;" vertex="1" parent="1">
          <mxGeometry x="130" y="160" width="80" height="40" as="geometry" />
        </mxCell>
        <mxCell id="LwbiWkl5QvT0qeDzT9Kk-16" value="&lt;b&gt;Monolithic Server&lt;/b&gt;" style="text;html=1;align=center;verticalAlign=middle;resizable=0;points=[];autosize=1;strokeColor=none;fillColor=none;fontSize=20;fontFamily=Architects Daughter;rounded=0;labelBackgroundColor=none;" vertex="1" parent="1">
          <mxGeometry x="295" y="73" width="190" height="40" as="geometry" />
        </mxCell>
        <mxCell id="LwbiWkl5QvT0qeDzT9Kk-17" value="Database" style="text;html=1;align=center;verticalAlign=middle;resizable=0;points=[];autosize=1;strokeColor=none;fillColor=none;fontSize=20;fontFamily=Architects Daughter;rounded=0;labelBackgroundColor=none;" vertex="1" parent="1">
          <mxGeometry x="565" y="73" width="110" height="40" as="geometry" />
        </mxCell>
      </root>
    </mxGraphModel>
  </diagram>
</mxfile>
